<?xml version="1.0" encoding="utf-8"?>
<!-- Generator: Adobe Illustrator 23.0.5, SVG Export Plug-In . SVG Version: 6.00 Build 0)  -->
<svg version="1.1" id="Layer_1" xmlns="http://www.w3.org/2000/svg" xmlns:xlink="http://www.w3.org/1999/xlink" x="0px" y="0px"
	 viewBox="0 0 1000 1000" style="enable-background:new 0 0 1000 1000;" xml:space="preserve">
<style type="text/css">
	.st0{fill:#FFFFFF;}
	.st1{fill:#FFB031;}
	.st2{fill:#390075;}
	.st3{opacity:0.65;}
	.st4{opacity:0.3;}
	.st5{fill:#19AFF9;}
	.st6{fill:#D0E1E8;}
	.st7{fill:#4089FF;}
	.st8{opacity:0.55;}
	.st9{fill:#40E6FF;}
	.st10{fill:#1CDB7C;}
	.st11{fill:#FF613A;}
</style>
<g>
	<circle class="st0" cx="500" cy="500" r="500"/>
	<g>
		<g>
			<g>
				<g>
					<path class="st1" d="M355.5,631.5l-76.3,0c-2.1,0-4.1-0.3-6-0.9h0c-8.9-2.6-15.4-10.8-15.4-20.5l0-94.4c0-13,11.5-23,24.5-21.2
						c6,0.8,11.6,2,16.9,3.6h0c27.1,7.8,45.9,24.5,58.3,48.3c6.2,12,10.7,25.7,13.8,41.1c1.5,7.3,2.6,14.9,3.4,22.8
						C375.7,621.7,366.9,631.5,355.5,631.5z"/>
					<path class="st2" d="M355.5,632l-76.3,0c-2.1,0-4.1-0.3-6.1-0.9l-0.1,0c-9.3-2.7-15.7-11.3-15.8-21l0-94.4
						c0-6.4,2.7-12.4,7.5-16.5c4.8-4.2,11.2-6.1,17.5-5.2c5.9,0.8,11.6,2,16.9,3.6l0.1,0c26.1,7.6,45.8,23.9,58.6,48.6
						c6.1,11.7,10.7,25.6,13.8,41.2c1.4,7.2,2.6,14.9,3.4,22.9c0.6,5.5-1.2,11.1-5,15.2C366.4,629.6,361.1,632,355.5,632z
						 M273.3,630.2L273.3,630.2c2,0.6,4,0.9,6,0.9l76.3,0c5.3,0,10.3-2.2,13.8-6.2c3.5-3.9,5.3-9.2,4.7-14.4c-0.8-8-2-15.6-3.4-22.8
						c-3.1-15.6-7.7-29.3-13.7-40.9c-12.6-24.4-32.1-40.6-57.9-48.1l-0.1,0c-5.3-1.5-11-2.7-16.8-3.6c-6-0.9-12.1,0.9-16.7,4.9
						c-4.6,4-7.2,9.7-7.2,15.8l0,94.4C258.3,619.3,264.4,627.6,273.3,630.2z"/>
				</g>
				<g class="st3">
					<path class="st0" d="M322,507.9c-9.4-4.5-20.1-7.6-32-9.3c-12.9-1.8-24.5,8.2-24.5,21.2l0,94.4c0,6.6,3,12.5,7.7,16.4
						c-8.9-2.6-15.4-10.8-15.4-20.5l0-94.4c0-13,11.5-23,24.5-21.2C297.6,496.7,310.8,501.2,322,507.9z"/>
				</g>
				<g>
					<path class="st0" d="M371.2,587.5l-113.4,0.1l0-41.1l99.6,0C363.6,558.4,368.1,572.2,371.2,587.5z"/>
				</g>
				<g>
					<path class="st2" d="M355.5,634.5l-76.3,0c-13.5,0-24.4-10.9-24.4-24.4l0-94.4c0-7.1,3.1-13.8,8.4-18.4
						c5.4-4.7,12.5-6.8,19.5-5.8c29.1,4.1,51.8,16.9,67.7,37.9c14.8,19.6,23.7,46,27.3,80.6c0.6,6.2-1.4,12.5-5.6,17.1
						C367.8,631.8,361.8,634.5,355.5,634.5z M279.2,497.3c-4.4,0-8.7,1.6-12.1,4.5c-4,3.5-6.3,8.6-6.3,13.9l0,94.4
						c0,10.2,8.3,18.4,18.4,18.4l76.3,0c4.6,0,8.9-1.9,12-5.3c3.1-3.4,4.5-8,4.1-12.5c-7.1-68.6-36.5-105.6-89.8-113.2
						C280.9,497.4,280,497.3,279.2,497.3z"/>
				</g>
				<g class="st4">
					<path class="st2" d="M355.5,631.5l-76.3,0c-2.1,0-4.1-0.3-6-0.9c61.6,2.7,75.7-97.9,25.9-132.5c27.1,7.8,45.9,24.5,58.3,48.3
						c6.2,12,10.7,25.7,13.8,41.1c1.5,7.3,2.6,14.9,3.4,22.8C375.7,621.7,366.9,631.5,355.5,631.5z"/>
				</g>
				<g class="st4">
					<path class="st0" d="M279.4,523.9c14,6.5,14,35.2,0,41.8c-2.9,1.4-6.2-0.8-6.2-4l0-33.8C273.2,524.7,276.5,522.6,279.4,523.9z"
						/>
				</g>
				<g>
					<path class="st5" d="M292.9,494.2l-29.1,0c-3.3,0-6-2.7-6-6l0-11.6c0-3.3,2.7-6,6-6l29.1,0c3.3,0,6,2.7,6,6l0,11.6
						C298.9,491.6,296.2,494.2,292.9,494.2z"/>
				</g>
				<g class="st4">
					<path class="st2" d="M298.9,476.9l0,11.1c0,3.5-2.8,6.3-6.3,6.3l-12.6,0c3.5,0,6.3-2.8,6.3-6.3l0-11.1c0-3.5-2.8-6.3-6.3-6.3
						l12.6,0C296.1,470.6,298.9,473.4,298.9,476.9z"/>
				</g>
				<g class="st3">
					<path class="st0" d="M271.2,494.3l-7.1,0c-3.5,0-6.3-2.8-6.3-6.3l0-11.1c0-3.5,2.8-6.3,6.3-6.3l7.1,0c-3.5,0-6.3,2.8-6.3,6.3
						l0,11.1C264.9,491.4,267.7,494.3,271.2,494.3z"/>
				</g>
				<g>
					<path class="st2" d="M292.6,497.2l-28.6,0c-5.1,0-9.3-4.2-9.3-9.3l0-11.1c0-5.1,4.2-9.3,9.3-9.3l28.6,0c5.1,0,9.3,4.2,9.3,9.3
						l0,11.1C301.9,493.1,297.7,497.2,292.6,497.2z M264,473.6c-1.8,0-3.3,1.5-3.3,3.3l0,11.1c0,1.8,1.5,3.3,3.3,3.3l28.6,0
						c1.8,0,3.3-1.5,3.3-3.3l0-11.1c0-1.8-1.5-3.3-3.3-3.3L264,473.6z"/>
				</g>
			</g>
			<g>
				<g>
					<path class="st6" d="M551.6,415.7l0.1,195.3c0,11.3-9.1,20.4-20.4,20.4L362,631.5c-11.3,0-20.4-9.1-20.4-20.4l-0.1-195.3
						c0-11.3,9.1-20.4,20.4-20.4l169.4-0.1C542.5,395.3,551.6,404.4,551.6,415.7z"/>
					<path class="st2" d="M531.3,631.9L362,632c-11.5,0-20.9-9.4-20.9-20.9l-0.1-195.3c0-11.5,9.4-20.9,20.9-20.9l169.4-0.1
						c11.5,0,20.9,9.4,20.9,20.9l0.1,195.3C552.2,622.5,542.8,631.9,531.3,631.9z M361.8,395.9c-11,0-19.9,8.9-19.9,19.9l0.1,195.3
						c0,11,8.9,19.9,19.9,19.9l169.4-0.1c11,0,19.9-8.9,19.9-19.9l-0.1-195.3c0-11-8.9-19.9-19.9-19.9L361.8,395.9z"/>
				</g>
				<g>
					<path class="st0" d="M549.1,404.4c-3-1.8-6.6-2.8-10.4-2.8l-169.4,0.1c-11.3,0-20.4,9.2-20.4,20.4l0.1,195.3
						c0,4.2,1.2,8,3.4,11.3c-6-3.5-10-10.1-10.1-17.6l-0.1-195.3c0-11.3,9.1-20.4,20.4-20.4l169.4-0.1
						C539.1,395.3,545.4,398.9,549.1,404.4z"/>
				</g>
				<g class="st4">
					<circle class="st2" cx="468.7" cy="546.4" r="64.1"/>
				</g>
				<g>
					<path class="st6" d="M602.4,415.7l0.1,195.3c0,11.3-9.1,20.4-20.4,20.4l-50.8,0c11.3,0,20.4-9.2,20.4-20.4l-0.1-195.3
						c0-11.3-9.2-20.4-20.4-20.4l50.8,0C593.3,395.3,602.4,404.4,602.4,415.7z"/>
					<path class="st2" d="M582.1,631.9l-50.8,0l0-1c11,0,19.9-8.9,19.9-19.9l-0.1-195.3c0-11-8.9-19.9-19.9-19.9l0-1l50.8,0
						c11.5,0,20.9,9.4,20.9,20.9L603,611C603,622.5,593.7,631.9,582.1,631.9z M537.7,630.9l44.4,0c11,0,19.9-8.9,19.9-19.9
						l-0.1-195.3c0-11-8.9-19.9-19.9-19.9l-44.4,0c8.4,2.7,14.5,10.6,14.5,19.9l0.1,195.3C552.2,620.3,546.1,628.2,537.7,630.9z"/>
				</g>
				<g>
					<circle class="st7" cx="453.1" cy="535.8" r="64.1"/>
				</g>
				<g class="st4">
					<circle class="st2" cx="453.1" cy="535.8" r="64.1"/>
				</g>
				<g>
					<path class="st2" d="M453.1,602.9c-37,0-67.1-30.1-67.1-67c0-37,30.1-67.1,67-67.1c37,0,67.1,30.1,67.1,67
						C520.2,572.8,490.1,602.9,453.1,602.9z M453.1,474.7c-33.7,0-61.1,27.4-61.1,61.1c0,33.7,27.4,61.1,61.1,61.1
						c33.7,0,61.1-27.4,61.1-61.1C514.2,502.1,486.8,474.7,453.1,474.7z"/>
				</g>
				<g class="st4">
					<path class="st2" d="M602.4,425.3l0.1,185.6c0,11.3-9.1,20.4-20.4,20.4l-50.8,0c11.3,0,20.4-9.2,20.4-20.4l-0.1-195.3
						c0-4-1.1-7.7-3.1-10.8l33.5,0C593.3,404.9,602.4,414,602.4,425.3z"/>
				</g>
				<g>
					<path class="st2" d="M531.3,634.4L362,634.5c-12.9,0-23.4-10.5-23.4-23.4l-0.1-195.3c0-12.9,10.5-23.4,23.4-23.4l169.4-0.1
						c12.9,0,23.4,10.5,23.4,23.4l0.1,195.3C554.7,623.9,544.2,634.4,531.3,634.4z M361.8,398.4c-9.6,0-17.4,7.8-17.4,17.4
						l0.1,195.3c0,9.6,7.8,17.4,17.4,17.4l169.4-0.1c9.6,0,17.4-7.8,17.4-17.4l-0.1-195.3c0-9.6-7.8-17.4-17.4-17.4L361.8,398.4z"/>
				</g>
				<g>
					<path class="st2" d="M582.1,634.4l-50.8,0c-1.7,0-3-1.3-3-3c0-1.7,1.3-3,3-3c9.6,0,17.4-7.8,17.4-17.4l-0.1-195.3
						c0-9.6-7.8-17.4-17.4-17.4c-1.7,0-3-1.3-3-3c0-1.7,1.3-3,3-3l50.8,0c12.9,0,23.4,10.5,23.4,23.4l0.1,195.3
						C605.5,623.9,595,634.4,582.1,634.4z M546.9,628.4l35.2,0c9.6,0,17.4-7.8,17.4-17.4l-0.1-195.3c0-9.6-7.8-17.4-17.4-17.4
						l-35.2,0c4.8,4.3,7.8,10.5,7.8,17.4l0.1,195.3C554.7,617.9,551.7,624.1,546.9,628.4z"/>
				</g>
				<g>
					<circle class="st7" cx="435.3" cy="535.8" r="64.1"/>
				</g>
				<g class="st8">
					<path class="st0" d="M376.9,540.6c0,18.5,7.9,35.2,20.5,46.9c-15.9-11.7-26.2-30.5-26.2-51.7c0-35.4,28.7-64.1,64.1-64.1
						c16.8,0,32.2,6.5,43.6,17.1c-10.6-7.8-23.7-12.4-37.9-12.4C405.6,476.5,376.9,505.2,376.9,540.6z"/>
				</g>
				<g>
					<path class="st2" d="M602.5,449.1l-261,0.1c-1.7,0-3-1.3-3-3c0-1.7,1.3-3,3-3l261-0.1c1.7,0,3,1.3,3,3
						C605.4,447.7,604.1,449.1,602.5,449.1z"/>
				</g>
				<g>
					<path class="st9" d="M478.1,535.8c0,21.4-15.7,39.1-36.1,42.3c-2.2,0.3-4.4,0.5-6.7,0.5c-6.1,0-12-1.3-17.3-3.6
						c-3.3-1.5-6.4-3.3-9.2-5.5c-3.9-3.1-7.3-6.9-10-11.2c-4-6.5-6.4-14.2-6.4-22.5c0-21.8,16.3-39.8,37.4-42.5
						c1.8-0.2,3.6-0.3,5.4-0.3c3.3,0,6.5,0.4,9.5,1.1c3.6,0.8,7,2,10.1,3.7c7.3,3.8,13.4,9.6,17.5,16.7
						C476.1,520.7,478.1,528,478.1,535.8z"/>
					<path class="st2" d="M435.3,579.2c-6.1,0-12-1.2-17.5-3.7c-3.3-1.5-6.5-3.4-9.3-5.6c-4-3.2-7.4-7-10.1-11.3
						c-4.2-6.8-6.4-14.7-6.5-22.8c0-21.8,16.3-40.3,37.8-43c5.2-0.6,10.2-0.4,15.1,0.7c3.6,0.8,7,2.1,10.2,3.7
						c7.4,3.8,13.5,9.7,17.7,16.9c3.8,6.5,5.8,14,5.8,21.6c0,21.5-15.4,39.5-36.5,42.8C439.9,579,437.6,579.2,435.3,579.2z
						 M435.3,493.5c-1.7,0-3.5,0.1-5.3,0.3c-21.1,2.7-37,20.7-37,42c0,7.9,2.2,15.6,6.3,22.2c2.6,4.2,5.9,7.9,9.8,11
						c2.8,2.2,5.9,4,9.1,5.5c5.4,2.4,11.1,3.6,17.1,3.6c2.2,0,4.5-0.2,6.6-0.5c20.7-3.3,35.7-20.8,35.7-41.8c0-7.4-2-14.7-5.7-21.1
						c-4.1-7.1-10.1-12.8-17.3-16.5c-3.1-1.6-6.5-2.8-10-3.6C441.6,493.8,438.5,493.5,435.3,493.5z"/>
				</g>
				<g class="st4">
					<path class="st0" d="M444.8,494l-36,75.4c-3.9-3.1-7.3-6.9-10-11.2l31-65c1.8-0.2,3.6-0.3,5.4-0.3
						C438.6,493,441.7,493.3,444.8,494z"/>
				</g>
				<g class="st4">
					<path class="st0" d="M472.4,514.4L442,578.1c-2.2,0.3-4.4,0.5-6.7,0.5c-6.1,0-12-1.3-17.3-3.6l36.9-77.3
						C462.2,501.5,468.3,507.3,472.4,514.4z"/>
				</g>
				<g class="st4">
					<path class="st2" d="M473.1,515.6c-7.6-7-17.9-11.4-29.1-11.4c-23.7,0-42.8,19.2-42.8,42.9c0,7.3,1.8,14.2,5.1,20.2
						c-8.5-7.8-13.8-19-13.8-31.5c0-23.7,19.2-42.8,42.8-42.9C451.6,493,465.8,502.1,473.1,515.6z"/>
				</g>
				<g class="st8">
					<path class="st0" d="M483.9,540.3c0,23.7-19.2,42.8-42.8,42.9c-11.1,0-21.3-4.2-28.9-11.2c6.7,4.3,14.6,6.7,23.1,6.7
						c23.7,0,42.8-19.2,42.8-42.9c0-12.5-5.4-23.7-13.9-31.6C476.1,511.8,483.9,525.1,483.9,540.3z"/>
				</g>
				<g>
					<path class="st2" d="M435.3,602.9c-37,0-67.1-30.1-67.1-67c0-37,30.1-67.1,67-67.1c37,0,67.1,30.1,67.1,67
						C502.4,572.8,472.3,602.9,435.3,602.9z M435.3,474.7c-33.7,0-61.1,27.4-61.1,61.1s27.4,61.1,61.1,61.1s61.1-27.4,61.1-61.1
						C496.4,502.1,469,474.7,435.3,474.7z"/>
				</g>
				<g>
					<circle class="st7" cx="517.1" cy="420.3" r="12"/>
				</g>
				<g>
					<circle class="st7" cx="480.6" cy="420.3" r="12"/>
				</g>
				<g class="st4">
					<path class="st2" d="M501.1,423.9c0,6.6-5.3,12-11.9,12c-3.4,0-6.4-1.4-8.6-3.7l0.1,0c6.6,0,12-5.4,11.9-12
						c0-3.2-1.3-6.2-3.4-8.3C495.8,412,501.1,417.4,501.1,423.9z"/>
				</g>
				<g class="st4">
					<path class="st2" d="M537.7,423.9c0,6.6-5.3,12-11.9,12c-3.4,0-6.4-1.4-8.6-3.7l0.1,0c6.6,0,12-5.4,11.9-12
						c0-3.2-1.3-6.2-3.4-8.3C532.4,412,537.7,417.3,537.7,423.9z"/>
				</g>
				<g class="st8">
					<path class="st0" d="M489.1,411.9c-1-0.3-2.2-0.5-3.3-0.5c-6.6,0-12,5.4-11.9,12c0,3.3,1.3,6.2,3.4,8.4c-5-1.4-8.7-6-8.7-11.5
						c0-6.6,5.4-12,11.9-12C483.9,408.3,487,409.7,489.1,411.9z"/>
				</g>
				<g class="st8">
					<path class="st0" d="M525.7,411.9c-1-0.3-2.2-0.5-3.3-0.5c-6.6,0-12,5.4-11.9,12c0,3.3,1.3,6.2,3.4,8.4c-5-1.4-8.7-6-8.7-11.5
						c0-6.6,5.4-12,11.9-12C520.5,408.3,523.5,409.7,525.7,411.9z"/>
				</g>
				<g>
					<path class="st2" d="M517.2,435.2c-8.2,0-14.9-6.7-15-14.9s6.7-14.9,14.9-15c8.2,0,14.9,6.7,15,14.9
						C532.1,428.5,525.4,435.2,517.2,435.2z M517.1,411.3c-4.9,0-9,4-9,9c0,4.9,4,9,9,9c4.9,0,9-4,9-9
						C526.1,415.3,522.1,411.3,517.1,411.3z"/>
				</g>
				<g>
					<path class="st2" d="M480.6,435.2c-8.2,0-14.9-6.7-15-14.9c0-8.2,6.7-14.9,14.9-15s14.9,6.7,15,14.9S488.9,435.2,480.6,435.2z
						 M480.6,411.3c-4.9,0-9,4-9,9c0,4.9,4,9,9,9c4.9,0,9-4,9-9C489.6,415.3,485.6,411.3,480.6,411.3z"/>
				</g>
				<g>
					<path class="st2" d="M413.5,425.3l-40.8,0c-2.8,0-5-2.2-5-5l0,0c0-2.8,2.2-5,5-5l40.8,0c2.8,0,5,2.2,5,5l0,0
						C418.5,423.1,416.2,425.3,413.5,425.3z"/>
				</g>
				<g>
					<path class="st2" d="M435.3,581.6c-25.3,0-45.8-20.5-45.8-45.8c0-25.3,20.5-45.8,45.8-45.8s45.8,20.5,45.8,45.8
						C481.1,561.1,460.6,581.6,435.3,581.6z M435.3,496c-22,0-39.8,17.9-39.8,39.9s17.9,39.8,39.9,39.8c22,0,39.8-17.9,39.8-39.9
						S457.2,496,435.3,496z"/>
				</g>
			</g>
			<g>
				<g>
					<path class="st5" d="M759.4,559.2l-150,0.1c-2.6,0-4.7-2.1-4.7-4.7l0-9.1c0-2.6,2.1-4.7,4.7-4.7l150-0.1c2.6,0,4.7,2.1,4.7,4.7
						l0,9.1C764.1,557.1,762,559.2,759.4,559.2z"/>
				</g>
				<g>
					<path class="st5" d="M717.6,631.3l-66.4,0c-18.9,0-34.3-15.3-34.3-34.3l0-37.8l135-0.1l0,37.8
						C751.9,616,736.6,631.3,717.6,631.3z"/>
				</g>
				<g class="st4">
					<path class="st2" d="M759.4,559.2l-150,0.1c-2.6,0-4.7-2.1-4.7-4.7l0-9.1c0-2.6,2.1-4.7,4.7-4.7l150-0.1c2.6,0,4.7,2.1,4.7,4.7
						l0,9.1C764.1,557.1,762,559.2,759.4,559.2z"/>
				</g>
				<g class="st4">
					<path class="st2" d="M717.6,631.3l-66.4,0c-18.9,0-34.3-15.3-34.3-34.3l0-37.8l135-0.1l0,37.8
						C751.9,616,736.6,631.3,717.6,631.3z"/>
				</g>
				<g>
					<path class="st10" d="M733.8,540.7l-106.8,0.1c-2.3,0-4.1-1.8-4.1-4.1l0-39c0-2.2,1.8-4,4-4.1l106.8-0.1c6.6,0,12,5.4,12,12
						l0,23.2C745.8,535.3,740.5,540.7,733.8,540.7z"/>
					<path class="st2" d="M722.2,541.2l-91.2,0c-4.8,0-8.6-3.9-8.6-8.6l0-31c0-4.7,3.8-8.5,8.5-8.5l91.3,0
						c13.3,0,24.1,10.8,24.1,24.1C746.3,530.3,735.5,541.2,722.2,541.2z M630.9,494c-4.1,0-7.5,3.4-7.5,7.5l0,31
						c0,4.2,3.4,7.6,7.6,7.6l91.2,0c12.7,0,23.1-10.4,23.1-23.1c0-12.7-10.4-23.1-23.1-23.1L630.9,494z"/>
				</g>
				<g>
					<path class="st2" d="M722.2,543.7l-91.2,0c-6.1,0-11.1-5-11.1-11.1l0-31c0-6,4.9-11,11-11l91.3,0c14.6,0,26.6,11.9,26.6,26.6
						C748.8,531.7,736.9,543.6,722.2,543.7z M630.9,496.5c-2.7,0-5,2.2-5,5l0,31c0,2.8,2.3,5.1,5.1,5.1l91.2,0
						c11.4,0,20.6-9.2,20.6-20.6c0-11.4-9.2-20.6-20.6-20.6L630.9,496.5z"/>
				</g>
				<g>
					<path class="st11" d="M725.5,493.5l-94.9,0c-4.2,0-7.7-3.4-7.7-7.7l0-14.9c0-4.2,3.4-7.7,7.7-7.7l94.9,0c4.2,0,7.7,3.4,7.7,7.7
						l0,14.9C733.2,490.1,729.7,493.5,725.5,493.5z"/>
					<path class="st2" d="M718.1,494l-80,0c-8.6,0-15.6-7-15.6-15.6c0-8.6,7-15.6,15.6-15.6l80,0c8.6,0,15.6,7,15.6,15.6
						C733.7,487,726.7,494,718.1,494z M638,463.8c-8.1,0-14.6,6.6-14.6,14.6c0,8.1,6.6,14.6,14.6,14.6l80,0
						c8.1,0,14.6-6.6,14.6-14.6s-6.6-14.6-14.6-14.6L638,463.8z"/>
				</g>
				<g class="st4">
					<path class="st2" d="M733.8,540.7l-106.8,0.1c-2.3,0-4.1-1.8-4.1-4.1l0-39c0-2.2,1.8-4,4-4.1l106.8-0.1c6.6,0,12,5.4,12,12
						l0,23.2C745.8,535.3,740.5,540.7,733.8,540.7z"/>
				</g>
				<g class="st4">
					<path class="st2" d="M725.5,493.5l-94.9,0c-4.2,0-7.7-3.4-7.7-7.7l0-14.9c0-4.2,3.4-7.7,7.7-7.7l94.9,0c4.2,0,7.7,3.4,7.7,7.7
						l0,14.9C733.2,490.1,729.7,493.5,725.5,493.5z"/>
				</g>
				<g>
					<path class="st2" d="M718.1,496.5l-80,0c-10,0-18.1-8.1-18.1-18.1c0-10,8.1-18.1,18.1-18.1l80,0c10,0,18.1,8.1,18.1,18.1
						C736.2,488.4,728,496.5,718.1,496.5z M638,466.3c-6.7,0-12.1,5.4-12.1,12.1c0,6.7,5.4,12.1,12.1,12.1l80,0
						c6.7,0,12.1-5.4,12.1-12.1c0-6.7-5.4-12.1-12.1-12.1L638,466.3z"/>
				</g>
				<g>
					<path class="st2" d="M754.8,562.2L614,562.3c-6.8,0-12.3-5.5-12.3-12.3c0-6.8,5.5-12.3,12.3-12.3l140.8-0.1
						c6.8,0,12.3,5.5,12.3,12.3S761.6,562.2,754.8,562.2z M614,543.7c-3.5,0-6.3,2.8-6.3,6.3c0,3.5,2.8,6.3,6.3,6.3l140.8-0.1
						c3.5,0,6.3-2.8,6.3-6.3c0-3.5-2.8-6.3-6.3-6.3L614,543.7z"/>
				</g>
				<g>
					<path class="st2" d="M740.2,634.3l-111.6,0.1c-8.1,0-14.7-6.6-14.7-14.7l0-60.4c0-1.7,1.3-3,3-3l135-0.1c1.7,0,3,1.3,3,3
						l0,60.4C754.9,627.7,748.3,634.3,740.2,634.3z M619.9,562.3l0,57.4c0,4.8,3.9,8.7,8.7,8.7l111.6-0.1c4.8,0,8.7-3.9,8.7-8.7
						l0-57.4L619.9,562.3z"/>
				</g>
				<g>
					<path class="st5" d="M727.2,559.3l-150,0.1c-2.6,0-4.7-2.1-4.7-4.7l0-9.1c0-2.6,2.1-4.7,4.7-4.7l150-0.1c2.6,0,4.7,2.1,4.7,4.7
						l0,9.1C731.9,557.1,729.8,559.3,727.2,559.3z"/>
				</g>
				<g>
					<path class="st5" d="M685.4,631.3l-66.4,0c-18.9,0-34.3-15.3-34.3-34.3l0-37.8l135-0.1l0,37.8
						C719.7,616,704.4,631.3,685.4,631.3z"/>
				</g>
				<g class="st4">
					<path class="st2" d="M731.9,550c0,2.6-1,4.9-2.7,6.6c-1.7,1.7-4,2.7-6.6,2.7l-19.4,0c2.6,0,4.9-1,6.6-2.7
						c1.7-1.7,2.7-4,2.7-6.6c0-5.1-4.2-9.3-9.3-9.3l19.4,0C727.7,540.7,731.9,544.8,731.9,550z"/>
				</g>
				<g class="st4">
					<path class="st2" d="M719.7,559.3l0,60.4c0,6.5-5.2,11.7-11.7,11.7l-19.4,0c6.5,0,11.7-5.2,11.7-11.7l0-60.4L719.7,559.3z"/>
				</g>
				<g class="st3">
					<path class="st0" d="M593.1,559.3l-13.4,0c-5.1,0-9.3-4.2-9.3-9.3c0-2.6,1-4.9,2.7-6.6c1.7-1.7,4-2.7,6.6-2.7l13.4,0
						c-2.6,0-4.9,1-6.6,2.7c-1.7,1.7-2.7,4-2.7,6.6C583.8,555.2,587.9,559.3,593.1,559.3z"/>
				</g>
				<g class="st3">
					<path class="st0" d="M607.7,631.4l-13.4,0c-6.5,0-11.7-5.2-11.7-11.7l0-60.4l13.4,0l0,60.4C596,626.1,601.3,631.4,607.7,631.4z
						"/>
				</g>
				<g>
					<path class="st2" d="M722.6,562.2l-140.8,0.1c-6.8,0-12.3-5.5-12.3-12.3s5.5-12.3,12.3-12.3l140.8-0.1
						c6.8,0,12.3,5.5,12.3,12.3C734.9,556.7,729.4,562.2,722.6,562.2z M581.8,543.7c-3.5,0-6.3,2.8-6.3,6.3c0,3.5,2.8,6.3,6.3,6.3
						l140.8-0.1c3.5,0,6.3-2.8,6.3-6.3c0-3.5-2.8-6.3-6.3-6.3L581.8,543.7z"/>
				</g>
				<g>
					<path class="st2" d="M708,634.3l-111.6,0.1c-8.1,0-14.7-6.6-14.7-14.7l0-60.4c0-1.7,1.3-3,3-3l135-0.1c1.7,0,3,1.3,3,3l0,60.4
						C722.7,627.7,716.1,634.3,708,634.3z M587.7,562.3l0,57.4c0,4.8,3.9,8.7,8.7,8.7l111.6-0.1c4.8,0,8.7-3.9,8.7-8.7l0-57.4
						L587.7,562.3z"/>
				</g>
				<g>
					<path class="st2" d="M625.8,613.9l-4.4,0c-1.3,0-2.3-1-2.3-2.3l0-35.3c0-1.3,1-2.3,2.3-2.3l4.4,0c1.3,0,2.3,1,2.3,2.3l0,35.3
						C628.1,612.9,627,613.9,625.8,613.9z"/>
				</g>
				<g>
					<path class="st2" d="M654.4,613.9l-4.4,0c-1.3,0-2.3-1-2.3-2.3l0-35.3c0-1.3,1-2.3,2.3-2.3l4.4,0c1.3,0,2.3,1,2.3,2.3l0,35.3
						C656.7,612.9,655.7,613.9,654.4,613.9z"/>
				</g>
				<g>
					<path class="st2" d="M680.9,613.9L680.9,613.9c-2.5,0-4.5-2-4.5-4.5l0-30.9c0-2.5,2-4.5,4.5-4.5l0,0c2.5,0,4.5,2,4.5,4.5
						l0,30.9C685.3,611.9,683.3,613.9,680.9,613.9z"/>
				</g>
				<g>
					<path class="st10" d="M699.2,540.7l-106.8,0.1c-2.3,0-4.1-1.8-4.1-4.1l0-39c0-2.2,1.8-4,4-4.1l106.8-0.1c6.6,0,12,5.4,12,12
						l0,23.2C711.2,535.3,705.8,540.7,699.2,540.7z"/>
					<path class="st2" d="M687.6,541.2l-91.2,0c-4.8,0-8.6-3.9-8.6-8.6l0-31c0-4.7,3.8-8.5,8.5-8.5l91.3,0
						c13.3,0,24.1,10.8,24.1,24.1C711.7,530.4,700.9,541.2,687.6,541.2z M596.3,494.1c-4.1,0-7.5,3.4-7.5,7.5l0,31
						c0,4.2,3.4,7.6,7.6,7.6l91.2,0c12.7,0,23.1-10.4,23.1-23.1c0-12.7-10.4-23.1-23.1-23.1L596.3,494.1z"/>
				</g>
				<g class="st4">
					<path class="st2" d="M711.2,517.1c0,6.5-2.6,12.4-6.9,16.7c-4.3,4.3-10.2,6.9-16.7,6.9l-17.3,0c6.5,0,12.4-2.6,16.7-6.9
						c4.3-4.3,6.9-10.2,6.9-16.7c0-13-10.6-23.6-23.6-23.6l17.3,0C700.6,493.5,711.2,504.1,711.2,517.1z"/>
				</g>
				<g class="st3">
					<path class="st0" d="M682.2,515.8c0,2.9-1.2,5.5-3.1,7.4c-1.9,1.9-4.5,3.1-7.4,3.1l-74,0l0,6.3c0,4.5,3.7,8.1,8.1,8.1l-11.6,0
						c-4.5,0-8.1-3.6-8.1-8.1l0-31c0-4.4,3.6-8,8-8l11.6,0c-4.4,0-8,3.6-8,8l0,14.3L682.2,515.8z"/>
				</g>
				<g>
					<path class="st2" d="M687.6,543.7l-91.2,0c-6.1,0-11.1-5-11.1-11.1l0-31c0-6,4.9-11,11-11l91.3,0c14.6,0,26.6,11.9,26.6,26.6
						C714.2,531.7,702.3,543.7,687.6,543.7z M596.3,496.6c-2.7,0-5,2.2-5,5l0,31c0,2.8,2.3,5.1,5.1,5.1l91.2,0
						c11.4,0,20.6-9.2,20.6-20.6c0-11.4-9.2-20.6-20.6-20.6L596.3,496.6z"/>
				</g>
				<g>
					<path class="st2" d="M588.3,514.2c4.3-0.1,8.6,0,12.9,0c4.3,0,8.6,0,12.9,0.1c8.6,0.1,17.2,0.1,25.8,0.3
						c8.6,0.1,17.2,0.3,25.8,0.5c8.6,0.2,17.2,0.6,25.8,1.8c0.1,0,0.2,0.1,0.2,0.3c0,0.1-0.1,0.2-0.2,0.2
						c-8.6,1.2-17.2,1.6-25.8,1.8c-8.6,0.2-17.2,0.4-25.8,0.6c-8.6,0.2-17.2,0.2-25.8,0.3c-4.3,0.1-8.6,0.1-12.9,0.1
						c-4.3,0-8.6,0-12.9,0c-1.7,0-3-1.4-3-3C585.4,515.5,586.7,514.2,588.3,514.2z"/>
				</g>
				<g>
					<path class="st11" d="M690.9,493.5l-94.9,0c-4.2,0-7.7-3.4-7.7-7.7l0-14.9c0-4.2,3.4-7.7,7.7-7.7l94.9,0c4.2,0,7.7,3.4,7.7,7.7
						l0,14.9C698.6,490.1,695.1,493.5,690.9,493.5z"/>
					<path class="st2" d="M683.5,494l-80,0c-8.6,0-15.6-7-15.6-15.6c0-8.6,7-15.6,15.6-15.6l80,0c8.6,0,15.6,7,15.6,15.6
						C699.1,487,692.1,494,683.5,494z M603.4,463.8c-8.1,0-14.6,6.6-14.6,14.6c0,8.1,6.6,14.6,14.6,14.6l80,0
						c8.1,0,14.6-6.6,14.6-14.6c0-8.1-6.6-14.6-14.6-14.6L603.4,463.8z"/>
				</g>
				<g class="st4">
					<path class="st2" d="M698.6,478.4c0,4.2-1.7,8-4.4,10.7c-2.7,2.7-6.5,4.4-10.7,4.4l-13.3,0c4.2,0,7.9-1.7,10.7-4.4
						c2.7-2.7,4.4-6.5,4.4-10.7c0-8.3-6.8-15.1-15.1-15.1l13.3,0C691.8,463.3,698.5,470.1,698.6,478.4z"/>
				</g>
				<g class="st3">
					<path class="st0" d="M614,493.6l-11.6,0c-8.3,0-15.1-6.8-15.1-15.1c0-4.2,1.7-8,4.4-10.7c2.7-2.7,6.5-4.4,10.7-4.4l11.6,0
						c-4.2,0-7.9,1.7-10.7,4.4c-2.7,2.7-4.4,6.5-4.4,10.7C598.9,486.8,605.6,493.6,614,493.6z"/>
				</g>
				<g>
					<path class="st2" d="M683.5,496.5l-80,0c-10,0-18.1-8.1-18.1-18.1s8.1-18.1,18.1-18.1l80,0c10,0,18.1,8.1,18.1,18.1
						S693.4,496.5,683.5,496.5z M603.4,466.3c-6.7,0-12.1,5.4-12.1,12.1c0,6.7,5.4,12.1,12.1,12.1l80,0c6.7,0,12.1-5.4,12.1-12.1
						c0-6.7-5.4-12.1-12.1-12.1L603.4,466.3z"/>
				</g>
			</g>
			<g>
				<path class="st2" d="M789.2,632.4c-12,1.7-24.1,2.1-36.2,2.3c-6,0.1-12,0.1-18.1,0.1c-6,0-12.1-0.1-18.1-0.1
					c-12.1-0.1-24.1-0.1-36.2-0.1l-36.2,0L500,634.7l-144.6,0.1l-72.3,0l-18.1,0l-9,0.1l-9,0.1c-12.1,0-24.1,0-36.2-2.4
					c-0.6-0.1-1-0.7-0.9-1.3c0.1-0.5,0.4-0.8,0.9-0.9c12-2.3,24.1-2.4,36.1-2.4l9,0.1l9,0.1l18.1,0l72.3,0l144.6-0.1l144.6-0.1
					l36.2,0c12.1,0,24.1,0,36.2-0.1c6-0.1,12-0.1,18.1-0.1c6,0,12.1,0,18.1,0.1c12.1,0.2,24.1,0.6,36.2,2.3c0.6,0.1,1,0.6,0.9,1.2
					C790,631.9,789.7,632.3,789.2,632.4z"/>
			</g>
			<g>
				<g>
					<path class="st2" d="M697.7,318.5c-0.2,0-0.5,0-0.7-0.1l-18.4-6c-3.7-1.2-7.7-1.1-11.3,0.2l-14.8,5.3c-1.2,0.4-2.6-0.2-3-1.4
						c-0.4-1.2,0.2-2.6,1.4-3l14.8-5.3c4.6-1.7,9.7-1.7,14.4-0.2l18.4,6c1.2,0.4,1.9,1.8,1.5,3C699.6,317.9,698.7,318.5,697.7,318.5
						z"/>
				</g>
				<g>
					<path class="st2" d="M672.8,311.5c-1.3,0-2.4-1.1-2.4-2.4l0-5.2c0-2.4,0.9-4.7,2.4-6.5c5.3-6.1,5.5-10.3,4.4-11.6
						c-1.3-1.5-5.4-1.1-10.4,2.5c-1.1,0.8-2.5,0.5-3.3-0.6c-0.8-1.1-0.5-2.6,0.6-3.3c6.8-4.8,13.3-5.5,16.7-1.8
						c2.8,3,3.1,9.3-4.3,17.9c-0.8,0.9-1.2,2.1-1.2,3.4l0,5.2C675.2,310.4,674.1,311.5,672.8,311.5L672.8,311.5z"/>
				</g>
				<g>
					<path class="st7" d="M743.7,334.3l0,11.5c0,3.9-3.4,6.9-7.3,6.5L716,350l0,67.4c0,5.6-4.6,10.2-10.2,10.2l-66,0
						c-5.6,0-10.2-4.6-10.2-10.2l0-67.4l-20.4,2.3c-3.9,0.4-7.3-2.6-7.3-6.5l0-11.5c0-2.8,1.7-5.2,4.3-6.1l43.2-15.4
						c2-0.7,4.1,0.5,4.5,2.6c3.8,19.1,34,19.1,37.7,0c0.4-2.1,2.5-3.3,4.5-2.6l43.3,15.4C742,329.1,743.7,331.6,743.7,334.3z"/>
				</g>
				<g class="st8">
					<path class="st0" d="M636.7,421c0,2.5,0.9,4.9,2.4,6.6c-5.3-0.3-9.6-4.8-9.6-10.2l0-63l1-0.7c2.6-1.8,6.1,0.1,6.1,3.2
						L636.7,421z"/>
				</g>
				<g class="st8">
					<path class="st0" d="M652.8,315.5c0.1,0.6,0.3,1.2,0.4,1.7l-41,14.6c-2.6,0.9-4.3,3.4-4.3,6.1l0,11.5c0,1,0.2,2,0.7,2.9
						l-0.5,0.1c-3.9,0.4-7.3-2.6-7.3-6.5l0-11.5c0-2.8,1.7-5.2,4.3-6.1l43.2-15.4C650.3,312.2,652.4,313.4,652.8,315.5z"/>
				</g>
				<g class="st8">
					<path class="st0" d="M742.3,330.2l-39-13.9c-2-0.7-4.1,0.5-4.5,2.6c-2.9,14.8-21.7,18.1-31.7,10c10,2.7,22.3-1.8,24.6-13.6
						c0.4-2.1,2.5-3.3,4.5-2.6l43.3,15.4C740.6,328.6,741.5,329.3,742.3,330.2z"/>
				</g>
				<g>
					<path class="st2" d="M614,354c-1.2,0-2.2-1-2.2-2.2l0-26.4c0-1.2,1-2.2,2.2-2.2s2.2,1,2.2,2.2l0,26.4
						C616.2,353,615.2,354,614,354z"/>
				</g>
				<g>
					<path class="st2" d="M731.1,353.9c-1.2,0-2.2-1-2.2-2.2l0-26.4c0-1.2,1-2.2,2.2-2.2c1.2,0,2.2,1,2.2,2.2l0,26.4
						C733.2,353,732.3,353.9,731.1,353.9z"/>
				</g>
				<g>
					<rect x="629.6" y="354.6" class="st0" width="86.5" height="22.2"/>
				</g>
				<g>
					<rect x="629.6" y="385.2" class="st0" width="86.5" height="11.1"/>
				</g>
				<g>
					<path class="st2" d="M705.8,430.5l-66,0c-7.2,0-13.1-5.9-13.1-13.1l0-64.2l-17.3,2c-2.7,0.3-5.3-0.5-7.3-2.3
						c-2-1.8-3.1-4.3-3.1-7l0-11.5c0-4,2.5-7.5,6.2-8.8l43.3-15.4c1.7-0.6,3.6-0.4,5.2,0.5c1.6,0.9,2.7,2.5,3.1,4.3
						c1.6,8.3,9.2,12,16.1,12c6.8,0,14.4-3.7,16.1-12c0.4-1.8,1.5-3.4,3.1-4.3c1.6-0.9,3.5-1.1,5.2-0.5l43.3,15.4
						c3.7,1.3,6.2,4.9,6.2,8.8l0,11.5c0,2.7-1.1,5.2-3.1,7c-2,1.8-4.7,2.6-7.3,2.3l-17.3-2l0,64.2
						C718.9,424.6,713.1,430.4,705.8,430.5z M629.6,347.2c0.7,0,1.4,0.3,1.9,0.7c0.6,0.5,1,1.3,1,2.1l0,67.4c0,4.1,3.3,7.4,7.4,7.4
						l66,0c4.1,0,7.4-3.3,7.4-7.4l0-67.4c0-0.8,0.3-1.6,1-2.1c0.6-0.5,1.4-0.8,2.2-0.7l20.4,2.3c1,0.1,2.1-0.2,2.9-0.9
						c0.8-0.7,1.2-1.7,1.2-2.7l0-11.5c0-1.5-1-2.9-2.4-3.5l-43.3-15.4c-0.1-0.1-0.3,0-0.4,0c-0.1,0.1-0.2,0.2-0.3,0.4
						c-2.2,11.5-12.5,16.6-21.6,16.6c-9.2,0-19.4-5.1-21.7-16.6c0-0.2-0.2-0.4-0.3-0.4c-0.1-0.1-0.3-0.1-0.4,0l-43.3,15.4
						c-1.5,0.5-2.4,1.9-2.4,3.5l0,11.5c0,1.1,0.4,2,1.2,2.7c0.8,0.7,1.8,1,2.9,0.9l20.4-2.3C629.3,347.2,629.5,347.2,629.6,347.2z"
						/>
				</g>
			</g>
		</g>
		<g>
			<path class="st2" d="M260,706.2l32.2-40h-30.7v-11.3H306v12l-31.8,40h32.2v11.3H260V706.2z"/>
			<path class="st2" d="M316.3,654.8h12v63.4h-12V654.8z"/>
			<path class="st2" d="M341,654.8h12v52.1h26.8v11.3H341V654.8z"/>
			<path class="st2" d="M406.9,654.8h13.6l23.8,63.4h-13.2l-5.2-15.1h-24.4l-5.2,15.1H383L406.9,654.8z M422,692.1l-5.7-15.9
				l-2.3-7.7h-0.7l-2.3,7.7l-5.7,15.9H422z"/>
			<path class="st2" d="M474.1,719.7c-3.7,0-7.1-0.6-10.1-1.8c-3-1.2-5.6-3-7.8-5.3c-2.1-2.3-3.8-5.1-5-8.4c-1.2-3.3-1.8-7-1.8-11.2
				v-38.2h12v38.9c0,2.1,0.3,4.1,0.8,5.8c0.5,1.8,1.3,3.3,2.4,4.6c1.1,1.3,2.4,2.3,4,3.1c1.6,0.7,3.4,1.1,5.5,1.1
				c2.1,0,4-0.4,5.6-1.1c1.6-0.7,2.9-1.8,4-3.1c1.1-1.3,1.9-2.8,2.4-4.6c0.5-1.8,0.8-3.7,0.8-5.8v-38.9h12V693c0,4-0.6,7.6-1.7,10.9
				c-1.2,3.3-2.8,6.1-5,8.4c-2.2,2.3-4.8,4.1-7.8,5.4C481.3,719,477.9,719.7,474.1,719.7z"/>
			<path class="st2" d="M510.1,654.8H524l25.5,42.5h0.7l-0.7-12.2v-30.3h11.9v63.4h-12.6l-26.9-44.9h-0.7l0.7,12.2v32.7h-11.8V654.8
				z"/>
			<path class="st2" d="M574.2,654.8h21.4c5,0,9.5,0.8,13.6,2.3c4,1.5,7.4,3.7,10.3,6.5c2.8,2.8,5,6.2,6.5,10.1
				c1.5,3.9,2.3,8.2,2.3,12.8c0,4.7-0.8,9-2.3,12.9c-1.5,3.9-3.7,7.2-6.5,10c-2.8,2.8-6.3,4.9-10.3,6.5c-4,1.5-8.5,2.3-13.6,2.3
				h-21.4V654.8z M595.1,706.9c3.5,0,6.6-0.5,9.2-1.5c2.7-1,4.9-2.3,6.6-4.1c1.8-1.8,3.1-3.9,4-6.4c0.9-2.5,1.3-5.3,1.3-8.4
				c0-3.1-0.4-5.9-1.3-8.4c-0.9-2.5-2.2-4.7-4-6.4c-1.8-1.8-4-3.1-6.6-4.1c-2.7-1-5.7-1.5-9.2-1.5h-8.9v40.7H595.1z"/>
			<path class="st2" d="M637.9,654.8H661c3.2,0,6.1,0.5,8.7,1.5c2.6,1,4.8,2.4,6.7,4.2c1.9,1.8,3.3,3.9,4.3,6.3c1,2.5,1.5,5.1,1.5,8
				c0,2.1-0.4,4.1-1.1,6c-0.7,1.9-1.7,3.5-2.9,5.1c-1.2,1.5-2.7,2.8-4.3,4c-1.7,1.2-3.4,2.1-5.2,2.7l-0.1,0.6l17,24.4v0.7h-13.7
				l-16.4-23.8h-5.6v23.8h-12V654.8z M660.9,683.5c2.7,0,4.9-0.8,6.7-2.5c1.7-1.7,2.6-3.7,2.6-6.3c0-1.1-0.2-2.2-0.6-3.3
				s-1-2-1.7-2.8c-0.8-0.8-1.7-1.5-2.9-2c-1.2-0.5-2.5-0.8-3.9-0.8h-11.2v17.6H660.9z"/>
			<path class="st2" d="M707.1,688.8l-21.3-33.9H700l12.7,21h0.7l12.2-21H740l-21,33.9v29.5h-12V688.8z"/>
		</g>
	</g>
</g>
</svg>
